PathFileType	4	(X/Y/Z)	C:/Users/beibeiliu/ov580/test_trc/User1\sequence.29_training_dense_right.trc
DataRate	CameraRate	NumFrames	NumMarkers	Units	OrigDataRate	OrigDataStartFrame	OrigNumFrames
120	120	8	19	mm	120	1	228
Frame#	Time	ThumbCMC			ThumbMCP			ThumbIP			ThumbTip			IndexMCP			IndexPIP			IndexTip			MiddleMCP			MiddlePIP			MiddleTip			RingMCP			RingPIP			RingTip			PinkyMCP			PinkyPIP			PinkyTip			BackHand1			BackHand2			BackHand3	
		X0	Y0	Z0	X1	Y1	Z1	X2	Y2	Z2	X3	Y3	Z3	X4	Y4	Z4	X5	Y5	Z5	X6	Y6	Z6	X7	Y7	Z7	X8	Y8	Z8	X9	Y9	Z9	X10	Y10	Z10	X11	Y11	Z11	X12	Y12	Z12	X13	Y13	Z13	X14	Y14	Z14	X15	Y15	Z15	X16	Y16	Z16	X17	Y17	Z17	X18	Y18	Z18	
0	0	135.917	-28.0602	66.1757	107.165	-38.0559	51.2256	90.7906	-46.9698	30.306	75.286	-54.8033	17.2594	160.903	-40.2022	-15.2137	164.37	-45.2095	-43.7188	166.547	-46.9717	-64.8807	194.042	-40.1188	-15.9102	197.003	-41.4151	-43.5268	209.009	-44.0536	-71.3677	212.455	-47.4295	-3.96083	222.456	-46.2516	-29.7184	234.417	-47.2019	-53.037	227.868	-61.0077	20.8622	243.229	-60.9206	8.86714	258.144	-53.3359	-2.5825	202.192	-34.4358	43.0891	200.252	-18.4973	74.4865	169.133	-17.5842	52.0425	
1	0.00833333	133.152	-28.9112	61.5088	110.543	-39.8522	52.1987	91.7219	-48.3698	28.8619	72.6547	-54.4978	20.6663	160.416	-41.0874	-14.9426	162.302	-43.5166	-43.3127	170.878	-48.2823	-67.5887	189.707	-40.0408	-15.8313	196.891	-41.745	-47.4011	208.604	-43.511	-73.0187	210.503	-46.4604	-6.44596	225.136	-47.1686	-25.227	232.629	-46.8516	-52.7541	226.519	-61.3537	21.3816	243.916	-60.8654	8.26271	257.566	-53.4772	-8.35004	201.111	-34.853	43.5307	199.516	-19.6653	74.6188	168.281	-17.4509	48.8915	
2	0.0166667	131.839	-27.6812	66.8072	110.146	-41.2069	50.0096	90.3662	-48.1667	30.0591	75.1583	-55.7298	18.4155	160.782	-41.449	-15.0588	160.919	-43.7831	-39.5419	170.925	-48.7945	-64.0592	190.949	-40.4788	-20.5465	196.389	-42.1172	-46.7477	209.268	-44.4469	-74.0257	212.572	-47.2095	-3.99421	220.99	-46.7542	-26.3132	232.512	-48.2982	-51.4147	227.303	-60.1525	20.4374	242.096	-62.2005	10.1404	255.092	-54.3401	-5.18433	201.919	-35.1709	42.8445	202.602	-20.3156	72.5384	169.88	-17.3497	50.8039	
3	0.025	131.017	-28.3096	63.7642	108.414	-39.8028	52.6653	90.943	-48.7685	28.6438	72.7324	-56.1432	18.2806	158.63	-40.6315	-13.7435	162	-44.3537	-43.7205	172.519	-48.7045	-65.4444	194.487	-40.9376	-17.4416	200.742	-43.1406	-46.7756	211.132	-46.3703	-71.8373	211.846	-45.5482	-5.91864	223.827	-45.5912	-29.7269	231.542	-48.212	-52.7246	226.825	-60.2746	21.3461	240.063	-62.2299	10.6981	258.995	-53.866	-7.02893	199.763	-32.9001	41.8866	200.561	-21.2837	75.4326	166.532	-18.6025	47.0927	
4	0.0333333	130.379	-27.8854	61.7407	109.598	-40.6724	51.1759	90.965	-48.501	29.9425	73.4633	-57.2866	17.3243	161.323	-41.0744	-17.4688	161.695	-43.3579	-40.8923	172.705	-48.9787	-64.8109	189.549	-39.8995	-15.6359	198.804	-43.305	-47.5405	207.827	-45.1534	-71.3284	210.065	-47.1673	-1.67883	221.53	-45.7711	-31.5319	232.478	-47.4079	-54.2818	227.006	-61.3059	24.1684	243.654	-61.0976	7.17794	259.469	-55.0849	-7.81941	200.138	-33.3606	45.0665	203.902	-20.1257	75.0716	171.601	-18.8867	51.2554	
5	0.0416667	131.533	-29.5997	61.018	111.905	-42.5718	50.5006	94.151	-49.9642	33.8571	76.0317	-57.5654	20.3549	158.643	-41.8547	-16.3048	166.512	-45.7422	-42.394	167.954	-47.2814	-68.4391	192.583	-41.0942	-15.0965	200.808	-43.4263	-43.3645	207.173	-45.9472	-69.8544	210.983	-47.0481	-5.12095	224.266	-46.6082	-27.194	229.9	-49.2598	-51.0212	230.66	-61.7599	22.1223	240.463	-61.701	9.01141	261.366	-53.3946	-6.93696	205.074	-36.2139	43.5616	201.881	-22.0368	72.3578	172.282	-20.4959	47.5419	
6	0.05	133.849	-30.3272	62.217	109.13	-40.2555	51.9036	89.7286	-48.176	31.696	72.8744	-56.4509	21.9109	160.066	-41.9051	-16.2897	161.538	-44.2876	-43.5695	172.68	-48.7996	-66.3017	190.517	-40.2443	-17.0284	198.598	-43.5971	-44.0243	208.553	-46.2158	-71.4359	215.054	-47.2012	-3.68632	225.434	-47.1095	-26.9915	233.482	-49.3205	-49.7347	226.94	-61.4438	22.9602	245.143	-62.6885	9.58181	261.585	-54.1707	-7.56608	201.678	-33.4331	45.3086	199.557	-20.9154	74.2005	170.093	-20.1406	48.0284	
7	0.0583333	132.742	-29.061	66.5759	109.719	-40.9361	51.7376	91.5288	-48.864	32.6736	73.2188	-56.1307	20.0703	158.453	-40.6088	-16.7214	164.902	-45.7332	-44.4497	171.1	-47.734	-68.9271	193.04	-41.5554	-18.0103	199.462	-44.0726	-45.2666	212.884	-46.3563	-74.1509	215.859	-48.0941	-3.99446	226.933	-47.2688	-27.6511	231.029	-48.0811	-50.1869	226.794	-61.1054	24.3648	240.592	-62.3044	10.6429	259.898	-53.3028	-4.13466	201.969	-33.2585	40.9846	200.395	-19.6378	76.0493	167.835	-17.9723	50.5906	
